<svg width="32" height="32" viewBox="0 0 32 32" fill="none" xmlns="http://www.w3.org/2000/svg">
<path d="M11.176 15.32C11.176 14.0507 11.5587 13.0427 12.324 12.296C13.0893 11.5307 14.0693 11.148 15.264 11.148C16.4587 11.148 17.4387 11.5307 18.204 12.296C18.9693 13.0427 19.352 14.0507 19.352 15.32C19.352 16.608 18.9693 17.6347 18.204 18.4C17.4387 19.1467 16.4587 19.52 15.264 19.52C14.0693 19.52 13.0893 19.1467 12.324 18.4C11.5587 17.6347 11.176 16.608 11.176 15.32ZM27.528 11.456L16.188 31H13.668L25.008 11.456H27.528ZM15.264 12.716C14.6293 12.716 14.1253 12.94 13.752 13.388C13.3973 13.8173 13.22 14.4613 13.22 15.32C13.22 16.1787 13.3973 16.832 13.752 17.28C14.1253 17.728 14.6293 17.952 15.264 17.952C15.8987 17.952 16.4027 17.728 16.776 17.28C17.1493 16.8133 17.336 16.16 17.336 15.32C17.336 14.4613 17.1493 13.8173 16.776 13.388C16.4027 12.94 15.8987 12.716 15.264 12.716ZM21.9 27.136C21.9 25.848 22.2827 24.8307 23.048 24.084C23.8133 23.3187 24.7933 22.936 25.988 22.936C27.1827 22.936 28.1533 23.3187 28.9 24.084C29.6653 24.8307 30.048 25.848 30.048 27.136C30.048 28.4053 29.6653 29.4227 28.9 30.188C28.1533 30.9533 27.1827 31.336 25.988 31.336C24.7933 31.336 23.8133 30.9627 23.048 30.216C22.2827 29.4507 21.9 28.424 21.9 27.136ZM25.96 24.532C25.3253 24.532 24.8213 24.756 24.448 25.204C24.0747 25.6333 23.888 26.2773 23.888 27.136C23.888 27.976 24.0747 28.62 24.448 29.068C24.8213 29.4973 25.3253 29.712 25.96 29.712C26.5947 29.712 27.0987 29.4973 27.472 29.068C27.8453 28.62 28.032 27.976 28.032 27.136C28.032 26.2773 27.8453 25.6333 27.472 25.204C27.0987 24.756 26.5947 24.532 25.96 24.532Z" fill="#323232"/>
</svg>
