<svg width="67" height="66" viewBox="0 0 67 66" fill="none" xmlns="http://www.w3.org/2000/svg">
<path d="M25.924 28.18C25.924 27.1827 26.2247 26.3907 26.826 25.804C27.4273 25.2027 28.1973 24.902 29.136 24.902C30.0747 24.902 30.8447 25.2027 31.446 25.804C32.0473 26.3907 32.348 27.1827 32.348 28.18C32.348 29.192 32.0473 29.9987 31.446 30.6C30.8447 31.1867 30.0747 31.48 29.136 31.48C28.1973 31.48 27.4273 31.1867 26.826 30.6C26.2247 29.9987 25.924 29.192 25.924 28.18ZM38.772 25.144L29.862 40.5H27.882L36.792 25.144H38.772ZM29.136 26.134C28.6373 26.134 28.2413 26.31 27.948 26.662C27.6693 26.9993 27.53 27.5053 27.53 28.18C27.53 28.8547 27.6693 29.368 27.948 29.72C28.2413 30.072 28.6373 30.248 29.136 30.248C29.6347 30.248 30.0307 30.072 30.324 29.72C30.6173 29.3533 30.764 28.84 30.764 28.18C30.764 27.5053 30.6173 26.9993 30.324 26.662C30.0307 26.31 29.6347 26.134 29.136 26.134ZM34.35 37.464C34.35 36.452 34.6507 35.6527 35.252 35.066C35.8533 34.4647 36.6233 34.164 37.562 34.164C38.5007 34.164 39.2633 34.4647 39.85 35.066C40.4513 35.6527 40.752 36.452 40.752 37.464C40.752 38.4613 40.4513 39.2607 39.85 39.862C39.2633 40.4633 38.5007 40.764 37.562 40.764C36.6233 40.764 35.8533 40.4707 35.252 39.884C34.6507 39.2827 34.35 38.476 34.35 37.464ZM37.54 35.418C37.0413 35.418 36.6453 35.594 36.352 35.946C36.0587 36.2833 35.912 36.7893 35.912 37.464C35.912 38.124 36.0587 38.63 36.352 38.982C36.6453 39.3193 37.0413 39.488 37.54 39.488C38.0387 39.488 38.4347 39.3193 38.728 38.982C39.0213 38.63 39.168 38.124 39.168 37.464C39.168 36.7893 39.0213 36.2833 38.728 35.946C38.4347 35.594 38.0387 35.418 37.54 35.418Z" fill="#FEA1A1"/>
</svg>
