<svg width="32" height="32" viewBox="0 0 32 32" fill="none" xmlns="http://www.w3.org/2000/svg">
<path d="M20.88 16.44C20.3947 16.44 19.984 16.272 19.648 15.936C19.312 15.6 19.144 15.1893 19.144 14.704C19.144 14.2187 19.312 13.808 19.648 13.472C19.984 13.136 20.3947 12.968 20.88 12.968C21.3467 12.968 21.7387 13.136 22.056 13.472C22.392 13.808 22.56 14.2187 22.56 14.704C22.56 15.1893 22.392 15.6 22.056 15.936C21.7387 16.272 21.3467 16.44 20.88 16.44ZM27.964 19.66V21.816H13.684V19.66H27.964ZM20.88 28.452C20.3947 28.452 19.984 28.284 19.648 27.948C19.312 27.612 19.144 27.2013 19.144 26.716C19.144 26.2307 19.312 25.82 19.648 25.484C19.984 25.148 20.3947 24.98 20.88 24.98C21.3467 24.98 21.7387 25.148 22.056 25.484C22.392 25.82 22.56 26.2307 22.56 26.716C22.56 27.2013 22.392 27.612 22.056 27.948C21.7387 28.284 21.3467 28.452 20.88 28.452Z" fill="#AAAAAA"/>
</svg>
