<svg width="50" height="50" viewBox="0 0 66 66" fill="none" xmlns="http://www.w3.org/2000/svg">
<path d="M30.342 44.592C28.934 43.2133 27.834 41.4607 27.042 39.334C26.2647 37.2073 25.876 34.912 25.876 32.448C25.876 29.9253 26.2867 27.5713 27.108 25.386C27.944 23.186 29.132 21.3747 30.672 19.952H32.762V20.15C31.1193 21.69 29.88 23.5453 29.044 25.716C28.2227 27.872 27.812 30.116 27.812 32.448C27.812 34.7213 28.2007 36.892 28.978 38.96C29.77 41.028 30.9213 42.8393 32.432 44.394V44.592H30.342ZM34.5462 44.592V44.394C36.0569 42.8393 37.2009 41.028 37.9782 38.96C38.7702 36.892 39.1662 34.7213 39.1662 32.448C39.1662 30.116 38.7482 27.872 37.9122 25.716C37.0909 23.5453 35.8589 21.69 34.2162 20.15V19.952H36.3062C37.8462 21.3747 39.0269 23.186 39.8482 25.386C40.6842 27.5713 41.1022 29.9253 41.1022 32.448C41.1022 34.912 40.7062 37.2073 39.9142 39.334C39.1369 41.4607 38.0442 43.2133 36.6362 44.592H34.5462Z" fill="#FEA1A1"/>
</svg>
