<svg width="67" height="66" viewBox="0 0 67 66" fill="none" xmlns="http://www.w3.org/2000/svg">
<path d="M33.37 29.06C32.9887 29.06 32.666 28.928 32.402 28.664C32.138 28.4 32.006 28.0773 32.006 27.696C32.006 27.3147 32.138 26.992 32.402 26.728C32.666 26.464 32.9887 26.332 33.37 26.332C33.7367 26.332 34.0447 26.464 34.294 26.728C34.558 26.992 34.69 27.3147 34.69 27.696C34.69 28.0773 34.558 28.4 34.294 28.664C34.0447 28.928 33.7367 29.06 33.37 29.06ZM38.936 31.59V33.284H27.716V31.59H38.936ZM33.37 38.498C32.9887 38.498 32.666 38.366 32.402 38.102C32.138 37.838 32.006 37.5153 32.006 37.134C32.006 36.7527 32.138 36.43 32.402 36.166C32.666 35.902 32.9887 35.77 33.37 35.77C33.7367 35.77 34.0447 35.902 34.294 36.166C34.558 36.43 34.69 36.7527 34.69 37.134C34.69 37.5153 34.558 37.838 34.294 38.102C34.0447 38.366 33.7367 38.498 33.37 38.498Z" fill="#FEA1A1"/>
</svg>
